<svg width="36" height="37" viewBox="0 0 36 37" fill="none" xmlns="http://www.w3.org/2000/svg">
<path d="M31.1737 7.33301H4.45326C3.86271 7.33301 3.29634 7.56761 2.87875 7.98519C2.46116 8.40278 2.22656 8.96915 2.22656 9.55971V27.3733C2.22656 27.9639 2.46116 28.5303 2.87875 28.9478C3.29634 29.3654 3.86271 29.6 4.45326 29.6H31.1737C31.7642 29.6 32.3306 29.3654 32.7482 28.9478C33.1658 28.5303 33.4004 27.9639 33.4004 27.3733V9.55971C33.4004 8.96915 33.1658 8.40278 32.7482 7.98519C32.3306 7.56761 31.7642 7.33301 31.1737 7.33301ZM28.7243 9.55971L17.8135 17.1082L6.90264 9.55971H28.7243ZM4.45326 27.3733V10.5729L17.1789 19.3795C17.3652 19.5088 17.5867 19.578 17.8135 19.578C18.0403 19.578 18.2617 19.5088 18.4481 19.3795L31.1737 10.5729V27.3733H4.45326Z" fill="white"/>
</svg>
