<svg width="69" height="30" viewBox="0 0 69 30" fill="none" xmlns="http://www.w3.org/2000/svg">
<path d="M14.9268 0C10.869 0 10.3633 0.0195939 8.77526 0.0867729C7.18069 0.165148 6.1021 0.412405 5.15039 0.781889C4.16883 1.1663 3.33283 1.67668 2.50708 2.50708C1.67574 3.33283 1.1607 4.16883 0.781889 5.15039C0.412405 6.1021 0.165148 7.18069 0.0867729 8.77526C0.0149287 10.3642 0 10.869 0 14.9268C0 18.9846 0.0195939 19.4903 0.0867729 21.0784C0.165148 22.6683 0.412405 23.7515 0.781889 24.7032C1.1663 25.6848 1.67668 26.5208 2.50708 27.3465C3.33283 28.1779 4.16883 28.6929 5.15039 29.0717C6.1021 29.4365 7.18536 29.6885 8.77526 29.7668C10.3642 29.8387 10.869 29.8536 14.9268 29.8536C18.9846 29.8536 19.4903 29.834 21.0784 29.7668C22.6683 29.6885 23.7515 29.4356 24.7032 29.0717C25.6848 28.6873 26.5208 28.1769 27.3465 27.3465C28.1779 26.5208 28.6929 25.6894 29.0717 24.7032C29.4365 23.7515 29.6885 22.6683 29.7668 21.0784C29.8387 19.4894 29.8536 18.9846 29.8536 14.9268C29.8536 10.869 29.834 10.3633 29.7668 8.77526C29.6885 7.18536 29.4356 6.0965 29.0717 5.15039C28.6873 4.16883 28.1769 3.33283 27.3465 2.50708C26.5208 1.67574 25.6895 1.1607 24.7032 0.781889C23.7515 0.412405 22.6683 0.165148 21.0784 0.0867729C19.4894 0.0149287 18.9846 0 14.9268 0ZM14.9268 2.68716C18.9118 2.68716 19.3877 2.70676 20.9627 2.77393C22.4154 2.84205 23.2066 3.08464 23.7319 3.28991C24.4326 3.56142 24.9225 3.88239 25.4525 4.40676C25.9722 4.92646 26.2931 5.42191 26.5646 6.12262C26.7699 6.64793 27.0125 7.43915 27.0806 8.89189C27.1478 10.4669 27.1674 10.9437 27.1674 14.9277C27.1674 18.9118 27.1478 19.3886 27.075 20.9636C26.9966 22.4163 26.7541 23.2076 26.5497 23.7329C26.267 24.4336 25.9516 24.9234 25.431 25.4534C24.9057 25.9731 24.4056 26.2941 23.7105 26.5656C23.1917 26.7708 22.3893 27.0134 20.9309 27.0815C19.3476 27.1487 18.881 27.1683 14.8858 27.1683C10.8905 27.1683 10.4249 27.1487 8.83964 27.076C7.3869 26.9976 6.58541 26.755 6.06011 26.5506C5.351 26.2679 4.86488 25.9526 4.34424 25.4319C3.81894 24.9066 3.48491 24.4065 3.22739 23.7114C3.01839 23.1926 2.77953 22.3902 2.70209 20.9319C2.64891 19.3672 2.62371 18.882 2.62371 14.9053C2.62371 10.9306 2.64891 10.4445 2.70209 8.86017C2.77953 7.40182 3.01839 6.60127 3.22739 6.08064C3.48491 5.37059 3.81988 4.88541 4.34424 4.36011C4.86395 3.8404 5.351 3.50451 6.06011 3.24139C6.58541 3.03705 7.3673 2.79446 8.82565 2.72168C10.409 2.66477 10.8755 2.64424 14.8652 2.64424L14.9268 2.68716ZM14.9268 7.2656C10.6899 7.2656 7.26373 10.6964 7.26373 14.9287C7.26373 19.1656 10.6945 22.5917 14.9268 22.5917C19.1638 22.5917 22.5899 19.161 22.5899 14.9287C22.5899 10.6917 19.1591 7.2656 14.9268 7.2656ZM14.9268 19.9046C12.1762 19.9046 9.9509 17.6793 9.9509 14.9287C9.9509 12.1781 12.1762 9.95276 14.9268 9.95276C17.6774 9.95276 19.9027 12.1781 19.9027 14.9287C19.9027 17.6793 17.6774 19.9046 14.9268 19.9046ZM24.6902 6.95956C24.6902 7.95139 23.8831 8.75194 22.8959 8.75194C21.9041 8.75194 21.1035 7.95045 21.1035 6.95956C21.1035 5.97334 21.9097 5.17092 22.8959 5.17092C23.8821 5.17092 24.6902 5.97334 24.6902 6.95956Z" fill="white"/>
<path d="M55.3174 27.366H50.3418C50.0119 27.366 49.6955 27.2349 49.4622 27.0016C49.229 26.7684 49.0979 26.452 49.0979 26.1221V18.4099H46.6101C46.2802 18.4099 45.9638 18.2788 45.7305 18.0455C45.4973 17.8123 45.3662 17.4959 45.3662 17.166V12.6879C45.3662 12.358 45.4973 12.0416 45.7305 11.8084C45.9638 11.5751 46.2802 11.444 46.6101 11.444H49.0979V9.3294C49.1851 7.43414 50.0192 5.6505 51.4178 4.36847C52.8163 3.08643 54.6656 2.41032 56.5613 2.48795H60.293C60.6229 2.48795 60.9393 2.619 61.1726 2.85228C61.4059 3.08556 61.5369 3.40195 61.5369 3.73185V8.20989C61.5369 8.5398 61.4059 8.85619 61.1726 9.08946C60.9393 9.32274 60.6229 9.45379 60.293 9.45379H56.5613V11.444H60.293C60.4851 11.4426 60.6749 11.4856 60.8475 11.5698C61.0202 11.654 61.171 11.777 61.2881 11.9292C61.404 12.0836 61.4823 12.263 61.5169 12.453C61.5514 12.643 61.5412 12.8384 61.4872 13.0238L60.2433 17.5018C60.168 17.7709 60.0044 18.0068 59.7787 18.1715C59.5531 18.3362 59.2786 18.4202 58.9994 18.4099H56.5613V26.1221C56.5613 26.452 56.4303 26.7684 56.197 27.0016C55.9637 27.2349 55.6473 27.366 55.3174 27.366ZM51.5857 24.8782H54.0735V17.166C54.0735 16.8361 54.2046 16.5197 54.4378 16.2864C54.6711 16.0531 54.9875 15.9221 55.3174 15.9221H58.1038L58.6511 13.9318H55.3174C54.9875 13.9318 54.6711 13.8008 54.4378 13.5675C54.2046 13.3342 54.0735 13.0178 54.0735 12.6879V9.3294C54.1055 8.69139 54.3816 8.09012 54.8447 7.65014C55.3079 7.21016 55.9225 6.96519 56.5613 6.96599H59.0491V4.97575H56.5613C55.3259 4.90048 54.1106 5.31538 53.1791 6.13042C52.2476 6.94546 51.6751 8.09492 51.5857 9.3294V12.6879C51.5857 13.0178 51.4547 13.3342 51.2214 13.5675C50.9881 13.8008 50.6717 13.9318 50.3418 13.9318H47.854V15.9221H50.3418C50.6717 15.9221 50.9881 16.0531 51.2214 16.2864C51.4547 16.5197 51.5857 16.8361 51.5857 17.166V24.8782Z" fill="white"/>
</svg>
