<svg width="35" height="36" viewBox="0 0 35 36" fill="none" xmlns="http://www.w3.org/2000/svg">
<g clip-path="url(#clip0_400_129)">
<path d="M0.812988 35.234L3.16925 26.3837C1.71581 23.7934 0.951309 20.8551 0.952378 17.8449C0.956116 8.42769 8.40676 0.766113 17.5621 0.766113C22.005 0.768036 26.1752 2.54672 29.3111 5.77504C32.4469 9.00337 34.1732 13.2946 34.1716 17.8586C34.1676 27.2755 26.7159 34.9382 17.5621 34.9382C17.5616 34.9382 17.5624 34.9382 17.5621 34.9382H17.5549C14.7751 34.9371 12.044 34.22 9.61801 32.859L0.812988 35.234ZM10.0258 29.7672L10.5302 30.0745C12.6493 31.3682 15.079 32.0524 17.5568 32.0537H17.5621C25.1709 32.0537 31.3638 25.685 31.367 17.8575C31.3683 14.0642 29.9339 10.4972 27.3274 7.8141C24.7206 5.13097 21.2549 3.65249 17.5672 3.65084C9.95233 3.65084 3.75966 10.0188 3.75672 17.846C3.75565 20.5283 4.48517 23.1403 5.86732 25.4007L6.19576 25.9379L4.8008 31.1762L10.0258 29.7672Z" fill="white"/>
<path d="M0.812988 35.234L3.16925 26.3837C1.71581 23.7934 0.951309 20.8551 0.952378 17.8449C0.956116 8.42769 8.40676 0.766113 17.5621 0.766113C22.005 0.768036 26.1752 2.54672 29.3111 5.77504C32.4469 9.00337 34.1732 13.2946 34.1716 17.8586C34.1676 27.2755 26.7159 34.9382 17.5621 34.9382C17.5616 34.9382 17.5624 34.9382 17.5621 34.9382H17.5549C14.7751 34.9371 12.044 34.22 9.61801 32.859L0.812988 35.234ZM10.0258 29.7672L10.5302 30.0745C12.6493 31.3682 15.079 32.0524 17.5568 32.0537H17.5621C25.1709 32.0537 31.3638 25.685 31.367 17.8575C31.3683 14.0642 29.9339 10.4972 27.3274 7.8141C24.7206 5.13097 21.2549 3.65249 17.5672 3.65084C9.95233 3.65084 3.75966 10.0188 3.75672 17.846C3.75565 20.5283 4.48517 23.1403 5.86732 25.4007L6.19576 25.9379L4.8008 31.1762L10.0258 29.7672Z" fill="white"/>
<path fill-rule="evenodd" clip-rule="evenodd" d="M13.4108 10.7047C13.1 9.99384 12.7726 9.97956 12.4767 9.9672C12.2348 9.95649 11.9579 9.95704 11.6815 9.95704C11.4049 9.95704 10.9552 10.0642 10.575 10.4912C10.1945 10.9183 9.12207 11.9511 9.12207 14.0514C9.12207 16.152 10.6094 18.1814 10.8169 18.4665C11.0244 18.7514 13.688 23.1992 17.9062 24.9103C21.412 26.3325 22.1253 26.0496 22.8863 25.9785C23.6473 25.9073 25.3416 24.9458 25.6874 23.949C26.0335 22.9523 26.0335 22.0981 25.9296 21.9193C25.8258 21.7416 25.5491 21.6347 25.1341 21.4213C24.7192 21.2079 22.6788 20.1749 22.2983 20.0326C21.9178 19.8901 21.6412 19.8192 21.3645 20.2466C21.0876 20.6734 20.2929 21.6347 20.0507 21.9193C19.8085 22.2047 19.5663 22.2404 19.1514 22.0267C18.7364 21.8127 17.3997 21.3623 15.8141 19.9079C14.5804 18.7766 13.7473 17.3792 13.5051 16.9518C13.2631 16.525 13.5011 16.314 13.6875 16.0808C14.0231 15.6609 14.5863 14.9059 14.7246 14.6213C14.8629 14.3362 14.7937 14.0871 14.6901 13.8734C14.5863 13.66 13.7796 11.549 13.4108 10.7047Z" fill="white"/>
</g>
<defs>
<clipPath id="clip0_400_129">
<rect width="35" height="36" fill="white"/>
</clipPath>
</defs>
</svg>
